{"title":"Presidents Day 2010 720p BluRay","uid":12522531,"size":3517302637,"categoryP":"video","categoryS":"hd___movies","magnet":"?xt=urn:btih:76d8736e95f297f4c2ccbd7a45589ffd6be22b68&amp;dn=Presidents+Day+2010+720p+BluRay&amp;tr=udp%3A%2F%2Ftracker.leechers-paradise.org%3A6969&amp;tr=udp%3A%2F%2Fzer0day.ch%3A1337&amp;tr=udp%3A%2F%2Fopen.demonii.com%3A1337&amp;tr=udp%3A%2F%2Ftracker.coppersurfer.tk%3A6969&amp;tr=udp%3A%2F%2Fexodus.desync.com%3A6969","seeders":0,"leechers":1,"uploader":"Joker__TPB","files":3,"time":1443916314,"description":"===================================================================================\r\nIt's campaign season| and the students of Lincoln High are buzzing about who's going to be class president... But when a psycho dressed as Abraham Lincoln starts\r\nhacking up students| the candidates must run... for their lives. One-by-one| the mighty Lincoln Lambs are being slaughtered by the merciless maniac in the stovepipe\r\nhat. Everyone is dying for a vote...\r\n===================================================================================\r\nscreens: \nhttp://extraimago.com/image/hWr\r\n===================================================================================\r\nmedia info:\r\nVideo\r\nID                                       : 1\r\nFormat                                   : AVC\r\nFormat/Info                              : Advanced Video Codec\r\nFormat profile                           :   \r\nFormat settings, CABAC                   : Yes\r\nFormat settings, ReFrames                : 5 frames\r\nCodec ID                                 : V_MPEG4/ISO/AVC\r\nDuration                                 : 1h 20mn\r\nBit rate                                 : 4 296 Kbps\r\nWidth                                    : 1 280 pixels\r\nHeight                                   : 720 pixels\r\nDisplay aspect ratio                     : 16:9\r\nFrame rate mode                          : Constant\r\nFrame rate                               : 23.976 fps\r\nColor space                              : YUV\r\nChroma subsampling                       : 4:2:0\r\nBit depth                                : 8 bits\r\nScan type                                : Progressive\r\nBits/(Pixel*Frame)                       : 0.194\r\nStream size                              : 2.36 GiB (72%)\r\nWriting library                          : x264 core 148 r2579 73ae2d1\r\nEncoding settings                        : cabac=1 / ref=5 / deblock=1:-2:-2 / analyse=0x3:0x113 / me=umh / subme=8 / psy=1 / psy_rd=1.00:0.00 / mixed_ref=1 / me_range=16 / chroma_me=1 / trellis=1 / 8x8dct=1 / cqm=0 / deadzone=21,11 / fast_pskip=1 / chroma_qp_offset=-2 / threads=12 / lookahead_threads=2 / sliced_threads=0 / nr=0 / decimate=1 / interlaced=0 / bluray_compat=0 / constrained_intra=0 / bframes=3 / b_pyramid=2 / b_adapt=2 / b_bias=0 / direct=3 / weightb=1 / open_gop=0 / weightp=2 / keyint=240 / keyint_min=24 / scenecut=40 / intra_refresh=0 / rc_lookahead=50 / rc=2pass / mbtree=1 / bitrate=4296 / ratetol=1.0 / qcomp=0.60 / qpmin=0 / qpmax=69 / qpstep=4 / cplxblur=20.0 / qblur=0.5 / ip_ratio=1.40 / aq=1:1.00\r\nLanguage                                 : English\r\nDefault                                  : Yes\r\nForced                                   : No\r\n\r\nAudio\r\nID                                       : 2\r\nFormat                                   : DTS\r\nFormat/Info                              : Digital Theater Systems\r\nMode                                     : 16\r\nFormat settings, Endianness              : Big\r\nCodec ID                                 : A_DTS\r\nDuration                                 : 1h 20mn\r\nBit rate mode                            : Constant\r\nBit rate                                 : 1 509 Kbps\r\nChannel(s)                               : 6 channels\r\nChannel positions                        : Front: L C R, Side: L R, LFE\r\nSampling rate                            : 48.0 KHz\r\nBit depth                                : 24 bits\r\nCompression mode                         : Lossy\r\nStream size                              : 872 MiB (26%)\r\nDefault                                  : Yes\r\nForced                                   : No\r\n\r\nMenu\r\n00:00:00.000                             : en:00:00:00.000\r\n00:01:59.328                             : en:00:01:59.328\r\n00:10:47.647                             : en:00:10:47.647\r\n00:16:26.485                             : en:00:16:26.485\r\n00:21:35.669                             : en:00:21:35.669\r\n00:28:26.496                             : en:00:28:26.496\r\n00:35:40.305                             : en:00:35:40.305\r\n00:42:41.392                             : en:00:42:41.392\r\n00:47:42.943                             : en:00:47:42.943\r\n00:57:05.505                             : en:00:57:05.505\r\n01:07:54.529                             : en:01:07:54.529\r\n01:14:20.164                             : en:01:14:20.164\r\n===================================================================================","torrent":{"xt":"urn:btih:76d8736e95f297f4c2ccbd7a45589ffd6be22b68","amp;dn":"Presidents+Day+2010+720p+BluRay","amp;tr":["udp%3A%2F%2Ftracker.leechers-paradise.org%3A6969","udp%3A%2F%2Fzer0day.ch%3A1337","udp%3A%2F%2Fopen.demonii.com%3A1337","udp%3A%2F%2Ftracker.coppersurfer.tk%3A6969","udp%3A%2F%2Fexodus.desync.com%3A6969"],"infoHash":"76d8736e95f297f4c2ccbd7a45589ffd6be22b68","infoHashBuffer":{"type":"Buffer","data":[118,216,115,110,149,242,151,244,194,204,189,122,69,88,159,253,107,226,43,104]},"announce":[],"urlList":[]}}